# xmcd
# 
# Track frame offsets:
#     150
#     12550
#     33530
#     54513
#     76097
#     91932
#     111083
#     126109
#     140451
#     164519
#     186478
#     210497
#     230151
#     253141
#     272318
#     296618
# 
# Disc length: 4243
# 
# Revision: 1
# Processed by: cddbd v1.5.2PL0 Copyright (c) Steve Scherf et al.
# Submitted via: fre:ac v1.0.27
# 
DISCID=e5109110
DTITLE=Various Artist - Nat and Dag 2 - Disc 1
DYEAR=2009
DGENRE=Jazz
TTITLE0=The Piano - Kiss Kiss Kiss
TTITLE1=Mek Pek - Hva' Ska' Vi Med Kvinder
TTITLE2=Mads Bærentzen Trio - McParty
TTITLE3=Povo - Too Right To Be Wrong
TTITLE4=Bentzon Brotherhood - Pass It On
TTITLE5=Katrine Madsen - Supernatural Love
TTITLE6=Caroline Henderson - Wade In The Water
TTITLE7=Birgit Lystager - Christina
TTITLE8=Strøm - Ay Carumba
TTITLE9=Steen Rasmussen - Airtos Song
TTITLE10=Peter Fuglsang Quartet - Cherokee
TTITLE11=Erling Kroner New Music Orchestra - Tango Jalousie
TTITLE12=Cæcilie Norby - Spinning Wheel
TTITLE13=Mo' Green Aka Morten Grønvad - Calle Raballero (Rabalderstræde)
TTITLE14=Chili - Sol Over Bryggen
TTITLE15=Moonjam - Two Parrots
EXTD=YEAR: 2009
EXTT0=
EXTT1=
EXTT2=
EXTT3=
EXTT4=
EXTT5=
EXTT6=
EXTT7=
EXTT8=
EXTT9=
EXTT10=
EXTT11=
EXTT12=
EXTT13=
EXTT14=
EXTT15=
PLAYORDER=
